<svg width="29" height="29" viewBox="0 0 29 29" fill="none" xmlns="http://www.w3.org/2000/svg">
<path d="M22.6562 0H6.34375C2.84019 0 0 2.84019 0 6.34375V22.6562C0 26.1598 2.84019 29 6.34375 29H22.6562C26.1598 29 29 26.1598 29 22.6562V6.34375C29 2.84019 26.1598 0 22.6562 0ZM27.1875 22.6562C27.1875 25.1588 25.1588 27.1875 22.6562 27.1875H6.34375C3.8412 27.1875 1.8125 25.1588 1.8125 22.6562V6.34375C1.8125 3.8412 3.8412 1.8125 6.34375 1.8125H22.6562C25.1588 1.8125 27.1875 3.8412 27.1875 6.34375V22.6562Z" fill="#6C77EB"/>
<path d="M9.0625 6.34375H7.25C6.74947 6.34375 6.34375 6.74947 6.34375 7.25V9.0625C6.34375 9.56303 6.74947 9.96875 7.25 9.96875H9.0625C9.56303 9.96875 9.96875 9.56303 9.96875 9.0625V7.25C9.96875 6.74947 9.56303 6.34375 9.0625 6.34375Z" fill="#6C77EB"/>
<path d="M9.0625 12.6875H7.25C6.74947 12.6875 6.34375 13.0932 6.34375 13.5938V15.4062C6.34375 15.9068 6.74947 16.3125 7.25 16.3125H9.0625C9.56303 16.3125 9.96875 15.9068 9.96875 15.4062V13.5938C9.96875 13.0932 9.56303 12.6875 9.0625 12.6875Z" fill="#6C77EB"/>
<path d="M9.0625 19.0312H7.25C6.74947 19.0312 6.34375 19.437 6.34375 19.9375V21.75C6.34375 22.2505 6.74947 22.6562 7.25 22.6562H9.0625C9.56303 22.6562 9.96875 22.2505 9.96875 21.75V19.9375C9.96875 19.437 9.56303 19.0312 9.0625 19.0312Z" fill="#6C77EB"/>
<path d="M22.6562 7.25H11.7812V9.0625H22.6562V7.25Z" fill="#6C77EB"/>
<path d="M22.6562 13.5938H11.7812V15.4062H22.6562V13.5938Z" fill="#6C77EB"/>
<path d="M22.6562 19.9375H11.7812V21.75H22.6562V19.9375Z" fill="#6C77EB"/>
</svg>
