<svg width="30" height="30" viewBox="0 0 30 30" fill="none" xmlns="http://www.w3.org/2000/svg">
<path d="M25.1812 2.02155H4.78952C2.65749 2.02155 0.922852 3.75584 0.922852 5.88822V18.3675C0.922852 20.4951 2.64994 22.2266 4.77579 22.2342V27.8971L12.9141 22.2342H25.1812C27.3132 22.2342 29.0478 20.4995 29.0478 18.3675V5.88822C29.0478 3.75584 27.3132 2.02155 25.1812 2.02155V2.02155ZM27.3999 18.3675C27.3999 19.5907 26.4046 20.5862 25.1812 20.5862H12.397L6.42374 24.7428V20.5862H4.78952C3.56609 20.5862 2.5708 19.5907 2.5708 18.3675V5.88822C2.5708 4.66462 3.56609 3.66949 4.78952 3.66949H25.1812C26.4046 3.66949 27.3999 4.66462 27.3999 5.88822V18.3675Z" fill="#6C77EB"/>
<path d="M8.45044 7.84447H21.5204V9.49242H8.45044V7.84447Z" fill="#6C77EB"/>
<path d="M8.45044 11.3601H21.5204V13.008H8.45044V11.3601Z" fill="#6C77EB"/>
<path d="M8.45044 14.8757H21.5204V16.5237H8.45044V14.8757Z" fill="#6C77EB"/>
</svg>
