<svg width="30" height="30" viewBox="0 0 30 30" fill="none" xmlns="http://www.w3.org/2000/svg">
<g clip-path="url(#clip0)">
<path d="M25.8376 4.61646C23.0062 1.66098 19.0884 -0.00695629 14.9955 0.000574709C6.72406 -0.00984318 0.0102467 6.68705 -0.000171231 14.9585C-0.00531742 19.0484 1.66242 22.9626 4.6157 25.7921C4.62431 25.8006 4.62751 25.8134 4.63604 25.821C4.72278 25.9045 4.81704 25.9752 4.9049 26.0556C5.14589 26.2698 5.38688 26.4916 5.64074 26.6982C5.77674 26.8054 5.91813 26.9124 6.05739 27.0109C6.29732 27.1898 6.53724 27.3686 6.78783 27.5336C6.95816 27.6408 7.13382 27.7478 7.30836 27.855C7.53968 27.9942 7.77001 28.1345 8.00886 28.2619C8.21132 28.3691 8.41798 28.4611 8.62364 28.5587C8.84857 28.6657 9.07029 28.7729 9.30055 28.8692C9.53082 28.9656 9.7622 29.0406 9.99566 29.1241C10.2291 29.2076 10.4305 29.2848 10.6544 29.3533C10.9072 29.4294 11.1664 29.4883 11.4234 29.5514C11.6376 29.6039 11.8454 29.6639 12.066 29.7068C12.3616 29.7658 12.6616 29.8032 12.9615 29.8439C13.1469 29.8697 13.3278 29.906 13.5152 29.9243C14.0058 29.9724 14.5006 29.9993 14.9997 29.9993C15.4988 29.9993 15.9936 29.9724 16.4842 29.9243C16.6716 29.906 16.8526 29.8697 17.0379 29.8439C17.3379 29.8032 17.6376 29.7658 17.9333 29.7068C18.1475 29.6639 18.3618 29.5997 18.576 29.5514C18.8331 29.4883 19.0923 29.4294 19.345 29.3533C19.5689 29.2848 19.7852 29.2013 20.0037 29.1241C20.2223 29.0471 20.4707 28.9634 20.6988 28.8692C20.927 28.7749 21.1509 28.6646 21.3758 28.5587C21.5814 28.4611 21.7882 28.3691 21.9905 28.2619C22.2294 28.1345 22.4596 27.9942 22.6911 27.855C22.8657 27.7478 23.0414 27.6504 23.2115 27.5336C23.4622 27.3688 23.7022 27.1898 23.942 27.0109C24.0813 26.9039 24.2226 26.8074 24.3587 26.6982C24.6125 26.4947 24.8535 26.2783 25.0946 26.0556C25.1823 25.9752 25.2766 25.9046 25.3634 25.821C25.3719 25.8136 25.3751 25.8006 25.3836 25.7921C31.3566 20.0699 31.5598 10.5892 25.8376 4.61646ZM23.4303 24.6707C23.2354 24.842 23.0339 25.0048 22.8305 25.1623C22.7105 25.2544 22.5905 25.3454 22.4674 25.4333C22.2735 25.5736 22.0764 25.7064 21.8762 25.8338C21.7305 25.9271 21.5816 26.017 21.4316 26.1048C21.243 26.212 21.0514 26.319 20.8575 26.4262C20.6861 26.514 20.5115 26.5964 20.336 26.6779C20.1603 26.7593 19.9664 26.846 19.7768 26.9221C19.5872 26.9982 19.3859 27.0698 19.1877 27.1363C19.0067 27.1984 18.8256 27.2627 18.6425 27.3173C18.4283 27.3816 18.2044 27.434 17.9828 27.4876C17.8092 27.5282 17.6379 27.5743 17.4622 27.6086C17.2084 27.658 16.9492 27.6922 16.6889 27.7276C16.5411 27.7468 16.3943 27.7736 16.2454 27.7887C15.8342 27.8282 15.4175 27.8518 14.9966 27.8518C14.5756 27.8518 14.159 27.8282 13.7477 27.7887C13.5988 27.7736 13.452 27.7468 13.3042 27.7276C13.0439 27.6922 12.7847 27.658 12.5309 27.6086C12.3552 27.5744 12.1839 27.5284 12.0104 27.4876C11.7887 27.434 11.568 27.3805 11.3506 27.3173C11.1675 27.2627 10.9864 27.1984 10.8054 27.1363C10.6073 27.0678 10.4091 26.9981 10.2163 26.9221C10.0235 26.846 9.84147 26.7625 9.65721 26.6779C9.47295 26.5933 9.30696 26.514 9.13562 26.4262C8.94176 26.3255 8.75004 26.2194 8.56152 26.1048C8.41158 26.0171 8.26266 25.9271 8.11699 25.8338C7.91673 25.7064 7.71961 25.5736 7.52575 25.4333C7.40256 25.3454 7.28262 25.2544 7.16263 25.1623C6.9591 25.0048 6.75777 24.841 6.56285 24.6707C6.51571 24.6353 6.47285 24.5903 6.42685 24.5496C6.47473 20.906 8.81544 17.6887 12.2674 16.5218C13.9935 17.3429 15.9975 17.3429 17.7236 16.5218C21.1755 17.6887 23.5162 20.9059 23.5642 24.5496C23.5192 24.5903 23.4762 24.6311 23.4303 24.6707ZM11.2606 8.5883C12.4203 6.52581 15.0323 5.79398 17.0949 6.9537C19.1573 8.11341 19.8891 10.7255 18.7294 12.7879C18.3447 13.4723 17.7792 14.0377 17.0949 14.4226C17.0895 14.4226 17.083 14.4226 17.0766 14.4289C16.7926 14.5871 16.4924 14.7142 16.1812 14.8081C16.1255 14.8242 16.074 14.8456 16.0152 14.8596C15.9081 14.8874 15.7956 14.9066 15.6852 14.926C15.4775 14.9623 15.2674 14.9833 15.0566 14.9892H14.9344C14.7237 14.9833 14.5134 14.9623 14.3057 14.926C14.1986 14.9066 14.085 14.8874 13.9758 14.8596C13.9191 14.8456 13.8687 14.8242 13.8099 14.8081C13.4986 14.7142 13.1985 14.5871 12.9144 14.4289L12.8951 14.4226C10.8327 13.2629 10.1009 10.6508 11.2606 8.5883ZM25.4642 22.4257C24.7769 19.2198 22.6658 16.5019 19.7297 15.0428C22.1298 12.4283 21.9561 8.36294 19.3414 5.96275C16.7268 3.56255 12.6616 3.73639 10.2614 6.35097C8.00497 8.80896 8.00497 12.5849 10.2614 15.0428C7.32523 16.502 5.21417 19.2198 4.52684 22.4257C0.419682 16.6404 1.78003 8.62106 7.56529 4.51391C13.3505 0.406746 21.3699 1.76709 25.4771 7.55235C27.021 9.72711 27.8498 12.3286 27.8484 14.9956C27.8484 17.6604 27.0148 20.2584 25.4642 22.4257Z" fill="#CFD4D9"/>
</g>
<defs>
<clipPath id="clip0">
<rect width="30" height="30" fill="white"/>
</clipPath>
</defs>
</svg>
